<svg xmlns="http://www.w3.org/2000/svg" width="33" height="39" viewBox="0 0 33 39" fill="none">
<path d="M0 2.78571C0 1.24487 1.22891 0 2.75 0H6.875H8.25H19.25C25.3258 0 30.25 4.98817 30.25 11.1429C30.25 13.8676 29.2789 16.3748 27.6719 18.3074C30.8602 20.2574 33 23.8004 33 27.8571C33 34.0118 28.0758 39 22 39H8.25H6.875H2.75C1.22891 39 0 37.7551 0 36.2143C0 34.6734 1.22891 33.4286 2.75 33.4286H4.125V19.5V5.57143H2.75C1.22891 5.57143 0 4.32656 0 2.78571ZM19.25 16.7143C22.2836 16.7143 24.75 14.2158 24.75 11.1429C24.75 8.06987 22.2836 5.57143 19.25 5.57143H9.625V16.7143H19.25ZM9.625 22.2857V33.4286H22C25.0336 33.4286 27.5 30.9301 27.5 27.8571C27.5 24.7842 25.0336 22.2857 22 22.2857H19.25H9.625Z" fill="#333333"/>
</svg>