<svg width="48" height="47" viewBox="0 0 48 47" fill="none" xmlns="http://www.w3.org/2000/svg">
<rect x="1" y="0.5" width="46" height="46" rx="8.5" fill="white" stroke="#2593FC"/>
<path fill-rule="evenodd" clip-rule="evenodd" d="M16.7516 11.4167C15.4169 11.4167 14.335 12.4987 14.335 13.8333V33.1667C14.335 34.5014 15.4169 35.5833 16.7516 35.5833H31.2516C32.5863 35.5833 33.6683 34.5014 33.6683 33.1667V19.1672C33.6683 18.5262 33.4137 17.9116 32.9605 17.4583L27.6266 12.1245C27.1734 11.6713 26.5587 11.4167 25.9178 11.4167H16.7516ZM16.7516 13.8333L25.9178 13.8333L31.2516 19.1672V33.1667H27.6266V30.1458C27.6266 29.1448 26.8151 28.3333 25.8141 28.3333H22.1891C21.1881 28.3333 20.3766 29.1448 20.3766 30.1458V33.1667H16.7516V13.8333ZM25.21 33.1667V30.75H22.7933V33.1667H25.21ZM20.3766 25.9167C20.3766 25.2493 20.9176 24.7083 21.585 24.7083H22.7933C23.4606 24.7083 24.0016 25.2493 24.0016 25.9167C24.0016 26.584 23.4606 27.125 22.7933 27.125H21.585C20.9176 27.125 20.3766 26.584 20.3766 25.9167ZM21.585 19.875C20.9176 19.875 20.3766 20.416 20.3766 21.0833C20.3766 21.7507 20.9176 22.2917 21.585 22.2917H22.7933C23.4606 22.2917 24.0016 21.7507 24.0016 21.0833C24.0016 20.416 23.4606 19.875 22.7933 19.875H21.585ZM24.0016 23.5C24.0016 22.8327 24.5426 22.2917 25.21 22.2917H26.4183C27.0856 22.2917 27.6266 22.8327 27.6266 23.5C27.6266 24.1673 27.0856 24.7083 26.4183 24.7083H25.21C24.5426 24.7083 24.0016 24.1673 24.0016 23.5ZM25.21 17.4583C24.5426 17.4583 24.0016 17.9993 24.0016 18.6667C24.0016 19.334 24.5426 19.875 25.21 19.875H26.4183C27.0856 19.875 27.6266 19.334 27.6266 18.6667C27.6266 17.9993 27.0856 17.4583 26.4183 17.4583H25.21Z" fill="#2593FC"/>
</svg>
