<svg width="48" height="47" viewBox="0 0 48 47" fill="none" xmlns="http://www.w3.org/2000/svg">
<rect x="0.5" width="47" height="47" rx="9" fill="#2593FC"/>
<path fill-rule="evenodd" clip-rule="evenodd" d="M12.75 15.625C12.75 14.3824 13.7574 13.375 15 13.375H18.375C19.6176 13.375 20.625 14.3824 20.625 15.625V19C20.625 20.2426 19.6176 21.25 18.375 21.25H15C13.7574 21.25 12.75 20.2426 12.75 19V15.625ZM18.375 15.625H15V19H18.375V15.625Z" fill="white"/>
<path d="M24 13.375C23.3787 13.375 22.875 13.8787 22.875 14.5C22.875 15.1213 23.3787 15.625 24 15.625H33C33.6213 15.625 34.125 15.1213 34.125 14.5C34.125 13.8787 33.6213 13.375 33 13.375H24Z" fill="white"/>
<path d="M24 17.875C23.3787 17.875 22.875 18.3787 22.875 19C22.875 19.6213 23.3787 20.125 24 20.125H28.5C29.1213 20.125 29.625 19.6213 29.625 19C29.625 18.3787 29.1213 17.875 28.5 17.875H24Z" fill="white"/>
<path d="M22.875 25.75C22.875 25.1287 23.3787 24.625 24 24.625H33C33.6213 24.625 34.125 25.1287 34.125 25.75C34.125 26.3713 33.6213 26.875 33 26.875H24C23.3787 26.875 22.875 26.3713 22.875 25.75Z" fill="white"/>
<path d="M24 29.125C23.3787 29.125 22.875 29.6287 22.875 30.25C22.875 30.8713 23.3787 31.375 24 31.375H28.5C29.1213 31.375 29.625 30.8713 29.625 30.25C29.625 29.6287 29.1213 29.125 28.5 29.125H24Z" fill="white"/>
<path fill-rule="evenodd" clip-rule="evenodd" d="M15 24.625C13.7574 24.625 12.75 25.6324 12.75 26.875V30.25C12.75 31.4926 13.7574 32.5 15 32.5H18.375C19.6176 32.5 20.625 31.4926 20.625 30.25V26.875C20.625 25.6324 19.6176 24.625 18.375 24.625H15ZM15 26.875H18.375V30.25H15V26.875Z" fill="white"/>
</svg>
