<svg width="48" height="47" viewBox="0 0 48 47" fill="none" xmlns="http://www.w3.org/2000/svg">
<rect x="1" y="0.5" width="46" height="46" rx="8.5" fill="white" stroke="#2593FC"/>
<path d="M23.798 15.7064C23.8948 15.611 23.9641 15.5696 24.0003 15.5522C24.0365 15.5696 24.1059 15.611 24.2027 15.7064C24.3952 15.8961 24.6756 16.2824 24.9741 17.0403C25.1069 17.3777 25.231 17.7622 25.3428 18.1929C24.4486 18.1555 23.5521 18.1555 22.6578 18.1929C22.7696 17.7622 22.8937 17.3777 23.0266 17.0403C23.325 16.2824 23.6055 15.8961 23.798 15.7064ZM25.859 25.3587C24.623 25.4414 23.3776 25.4414 22.1417 25.3587C22.0589 24.1227 22.0589 22.8773 22.1417 21.6413C23.3776 21.5586 24.623 21.5586 25.859 21.6413C25.9417 22.8773 25.9417 24.1227 25.859 25.3587ZM18.6932 22.1575C18.6558 23.0517 18.6558 23.9483 18.6932 24.8425C18.2625 24.7307 17.878 24.6066 17.5406 24.4737C16.7827 24.1753 16.3965 23.8948 16.2067 23.7023C16.1113 23.6055 16.0699 23.5362 16.0525 23.5C16.0699 23.4638 16.1113 23.3945 16.2067 23.2977C16.3965 23.1052 16.7827 22.8247 17.5406 22.5263C17.878 22.3934 18.2625 22.2693 18.6932 22.1575ZM23.0266 29.9597C22.8937 29.6223 22.7696 29.2378 22.6578 28.8071C23.5521 28.8445 24.4486 28.8445 25.3428 28.8071C25.231 29.2378 25.1069 29.6223 24.9741 29.9597C24.6756 30.7176 24.3952 31.1039 24.2027 31.2936C24.1059 31.389 24.0365 31.4304 24.0003 31.4479C23.9641 31.4304 23.8948 31.389 23.798 31.2936C23.6055 31.1039 23.325 30.7176 23.0266 29.9597ZM30.46 24.4737C30.1226 24.6066 29.7382 24.7307 29.3075 24.8425C29.3449 23.9483 29.3449 23.0517 29.3075 22.1575C29.7382 22.2693 30.1226 22.3934 30.46 22.5263C31.2179 22.8247 31.6042 23.1052 31.7939 23.2977C31.8894 23.3945 31.9307 23.4638 31.9482 23.5C31.9307 23.5362 31.8894 23.6055 31.7939 23.7023C31.6042 23.8948 31.2179 24.1753 30.46 24.4737ZM35.5837 23.5C35.5837 29.8973 30.3976 35.0833 24.0003 35.0833C17.603 35.0833 12.417 29.8973 12.417 23.5C12.417 17.1027 17.603 11.9167 24.0003 11.9167C30.3976 11.9167 35.5837 17.1027 35.5837 23.5ZM19.8475 15.7885C19.5279 16.6001 19.2694 17.5357 19.0767 18.5764C18.036 18.7691 17.1004 19.0276 16.2888 19.3472C14.5307 20.0395 12.6253 21.3442 12.6253 23.5C12.6253 25.6558 14.5307 26.9605 16.2888 27.6528C17.1004 27.9724 18.036 28.2309 19.0767 28.4236C19.2694 29.4643 19.5279 30.3999 19.8475 31.2115C20.5398 32.9697 21.8445 34.875 24.0003 34.875C26.1561 34.875 27.4608 32.9697 28.1531 31.2115C28.4727 30.3999 28.7312 29.4643 28.9239 28.4236C29.9647 28.2309 30.9002 27.9724 31.7119 27.6528C33.47 26.9605 35.3753 25.6558 35.3753 23.5C35.3753 21.3442 33.47 20.0395 31.7119 19.3472C30.9002 19.0276 29.9647 18.7691 28.9239 18.5764C28.7312 17.5357 28.4727 16.6001 28.1531 15.7885C27.4608 14.0304 26.1561 12.125 24.0003 12.125C21.8445 12.125 20.5398 14.0304 19.8475 15.7885Z" fill="#2593FC" stroke="#2593FC"/>
</svg>
