<svg width="22" height="22" viewBox="0 0 22 22" fill="none" xmlns="http://www.w3.org/2000/svg">
<rect width="22" height="22" rx="4" fill="#2593FC"/>
<path d="M9.29638 15.0739C9.26896 15.1829 8.58341 17.75 4.81255 17.75C4.66337 17.75 4.5203 17.6907 4.41481 17.5852C4.30932 17.4798 4.25005 17.3367 4.25005 17.1875C4.25005 13.4166 6.81716 12.7311 6.92615 12.7037C7.07095 12.6675 7.22419 12.6903 7.35216 12.7671C7.48014 12.8439 7.57235 12.9684 7.60853 13.1132C7.64471 13.258 7.62188 13.4113 7.54507 13.5393C7.46826 13.6672 7.34376 13.7594 7.19896 13.7956C7.13568 13.8132 5.62255 14.2555 5.40177 16.5983C7.74459 16.3775 8.18755 14.8672 8.20583 14.7969C8.24313 14.6523 8.33635 14.5284 8.46498 14.4525C8.59361 14.3766 8.74712 14.3549 8.89173 14.3922C9.03635 14.4295 9.16023 14.5227 9.23611 14.6514C9.312 14.78 9.33368 14.9335 9.29638 15.0781V15.0739ZM15.8354 10.3348L15.5001 10.6702V14.7716C15.5009 14.9199 15.4722 15.0669 15.4157 15.204C15.3592 15.3411 15.276 15.4656 15.171 15.5703L12.7579 17.982C12.6538 18.0868 12.53 18.17 12.3936 18.2267C12.2573 18.2834 12.111 18.3126 11.9633 18.3125C11.8414 18.3125 11.7204 18.2928 11.6047 18.2541C11.4062 18.1885 11.2301 18.0686 11.0961 17.9081C10.9622 17.7476 10.8758 17.5528 10.8468 17.3457L10.4692 14.6394L7.36068 11.5309L4.65576 11.1533C4.44844 11.1242 4.25334 11.0379 4.09242 10.9039C3.93149 10.77 3.81113 10.5939 3.74486 10.3953C3.67859 10.1967 3.66905 9.98357 3.71731 9.77986C3.76557 9.57615 3.86971 9.38994 4.01802 9.24219L6.42974 6.82906C6.53442 6.72401 6.65895 6.64081 6.79607 6.58432C6.9332 6.52783 7.08019 6.49917 7.22849 6.5H11.3298L11.6652 6.16461C13.5411 4.28938 15.8017 4.20852 16.6862 4.26125C16.9605 4.27792 17.2192 4.39439 17.4135 4.58869C17.6078 4.78298 17.7242 5.04167 17.7409 5.31594C17.7922 6.19836 17.7114 8.45891 15.8361 10.3348H15.8354ZM4.81255 10.0395L7.42466 10.4038L10.2048 7.625H7.22849L4.81255 10.0395ZM8.42099 11L11.0001 13.5791L15.0395 9.53961C15.5839 8.99891 16.0062 8.34794 16.2781 7.63046C16.55 6.91298 16.6652 6.14561 16.6159 5.37992C15.8506 5.33247 15.084 5.44885 14.3673 5.7213C13.6506 5.99376 13.0003 6.416 12.4597 6.95985L8.42099 11ZM14.3751 11.7952L11.5956 14.5747L11.9612 17.1875L14.3751 14.7716V11.7952Z" fill="white"/>
</svg>
